<svg width="144" height="32" viewBox="0 0 144 32" fill="none" xmlns="http://www.w3.org/2000/svg">
<path fill-rule="evenodd" clip-rule="evenodd" d="M9.79374 1.67261L13.8296 8.66295L4.20202 25.3384C2.08302 22.6965 0.81543 19.3424 0.81543 15.6922C0.81543 9.47402 4.49403 4.11499 9.79374 1.67261ZM12.9268 18.5515L16.2328 12.8254L19.5388 18.5515H12.9268ZM10.5236 22.714L7.31312 28.2747C9.8336 30.0669 12.9157 31.1208 16.244 31.1208C22.2362 31.1208 27.4305 27.7048 29.9858 22.714H21.9526L21.9446 22.7186L21.942 22.714H10.5236ZM24.3451 18.5515H31.4081C31.5818 17.625 31.6726 16.6692 31.6726 15.6922C31.6726 7.17128 24.765 0.263672 16.244 0.263672C15.4435 0.263672 14.6573 0.324631 13.8897 0.442161L24.3451 18.5515Z" fill="white"/>
<path d="M41.6644 24.017H44.2667C44.7398 24.017 45.0001 23.7332 45.1184 23.4493L45.97 21.5567H52.4048L53.2564 23.4256C53.4693 23.8751 53.6586 24.017 54.0844 24.017H56.7104C57.0652 24.017 57.2545 23.7095 57.1125 23.402L49.7078 7.26838C49.6369 7.12643 49.4713 7.00815 49.3057 7.00815H49.0691C48.9035 7.00815 48.7379 7.12643 48.6669 7.26838L41.2622 23.402C41.1203 23.7095 41.3096 24.017 41.6644 24.017ZM47.3894 18.127L49.1637 14.2236H49.1874L50.9853 18.127H47.3894Z" fill="white"/>
<path d="M60.7045 11.4673C61.7454 11.4673 62.5971 10.6393 62.5971 9.59838C62.5971 8.55746 61.7454 7.70581 60.7045 7.70581C59.6636 7.70581 58.8356 8.55746 58.8356 9.59838C58.8356 10.6393 59.6636 11.4673 60.7045 11.4673ZM58.9732 23.5671C58.9732 23.8037 59.1861 24.0166 59.4227 24.0166H62.025C62.2616 24.0166 62.4745 23.8037 62.4745 23.5671L62.4788 14.7793C62.4788 14.5191 62.2659 14.3298 62.0293 14.3298H59.427C59.1905 14.3298 58.9776 14.5191 58.9776 14.7793L58.9732 23.5671Z" fill="white"/>
<path d="M65.2302 22.2076C65.7744 22.7517 67.4777 24.0292 70.5531 24.0292C74.0307 24.0292 76.1362 21.5689 76.1362 19.1322C76.1362 15.9148 73.2027 14.4717 71.3574 13.7384C69.4885 12.9813 68.7788 12.3189 68.7788 11.4436C68.7788 10.8049 69.4176 10.2371 70.2692 10.2371C71.7123 10.2371 73.4393 11.5383 73.6522 11.6566C73.8651 11.8221 74.2909 11.6092 74.4565 11.349L75.6631 9.52741C75.7577 9.36181 75.805 8.93598 75.5211 8.77038C74.8114 8.24992 72.9188 6.99609 70.4585 6.99609C66.8153 6.99609 64.9937 9.36181 64.9937 11.7039C64.9937 14.5427 67.5487 16.1277 69.5832 16.9321C71.1919 17.5708 72.0198 18.3279 72.0198 19.3215C72.0198 20.1495 71.3338 20.7409 70.3875 20.7409C68.8261 20.7409 67.1228 19.4871 67.0282 19.4397C66.8626 19.3215 66.4131 19.2741 66.2239 19.5817L65.112 21.5452C64.9227 21.8764 64.9937 21.9711 65.2302 22.2076Z" fill="white"/>
<path d="M78.5221 15.5363C78.5221 20.2677 82.3309 24.0292 87.0623 24.0292C89.1678 24.0292 91.2023 23.2959 92.811 21.7345C92.9766 21.5689 93.0002 21.2613 92.8346 21.0957L90.9894 19.1322C90.8474 18.9666 90.5399 18.9666 90.3743 19.1085C89.5226 19.8419 88.3161 20.2441 87.2042 20.2441C84.531 20.2441 82.5438 18.0676 82.5438 15.4417C82.5438 12.7921 84.5073 10.5683 87.1806 10.5683C88.3398 10.5683 89.499 10.9942 90.3743 11.7748C90.5399 11.9404 90.8001 11.9404 90.9657 11.7748L92.811 9.85861C93.0002 9.66935 93.0002 9.38546 92.7873 9.19621C91.1786 7.72947 89.428 6.99609 87.0623 6.99609C82.3309 6.99609 78.5221 10.8049 78.5221 15.5363Z" fill="white"/>
<path d="M95.0802 15.5363C95.0802 20.2677 98.8417 24.0292 103.573 24.0292C108.305 24.0292 112.09 20.2677 112.09 15.5363C112.09 10.8049 108.305 6.99609 103.573 6.99609C98.8417 6.99609 95.0802 10.8049 95.0802 15.5363ZM98.8653 15.5363C98.8653 12.934 100.994 10.7812 103.573 10.7812C106.175 10.7812 108.305 12.934 108.305 15.5363C108.305 18.1149 106.175 20.2441 103.573 20.2441C100.994 20.2441 98.8653 18.1149 98.8653 15.5363Z" fill="white"/>
<path d="M115.427 17.4525C115.427 21.0484 118.431 24.0292 122.145 24.0292C125.883 24.0292 128.911 21.0484 128.911 17.4525V7.68215C128.911 7.44558 128.698 7.23266 128.462 7.23266H125.552C125.292 7.23266 125.103 7.44558 125.103 7.68215V17.2633C125.103 18.9193 123.849 20.2441 122.145 20.2441C120.466 20.2441 119.236 18.9193 119.236 17.2633V7.68215C119.236 7.44558 119.046 7.23266 118.786 7.23266H115.876C115.64 7.23266 115.427 7.44558 115.427 7.68215V17.4525Z" fill="white"/>
<path d="M135.571 23.5677C135.571 23.8043 135.784 24.0172 136.02 24.0172H138.859C139.096 24.0172 139.309 23.8043 139.309 23.5677V10.9348H142.692C142.952 10.9348 143.141 10.7219 143.141 10.4853V7.90666C143.141 7.67009 142.952 7.45717 142.692 7.45717H132.188C131.928 7.45717 131.738 7.67009 131.738 7.90666V10.4853C131.738 10.7219 131.928 10.9348 132.188 10.9348H135.571V23.5677Z" fill="white"/>
<path d="M62.5972 9.58277C62.5972 10.6241 61.753 11.4683 60.7117 11.4683C59.6703 11.4683 58.8262 10.6241 58.8262 9.58277C58.8262 8.54144 59.6703 7.69727 60.7117 7.69727C61.753 7.69727 62.5972 8.54144 62.5972 9.58277Z" fill="#00CB8E"/>
</svg>
