<svg width="24" height="26" viewBox="0 0 24 26" fill="none" xmlns="http://www.w3.org/2000/svg">
<path d="M13.9216 13L23.6628 1.38848C23.8261 1.19551 23.6888 0.902344 23.4364 0.902344H20.4751C20.3007 0.902344 20.1337 0.980273 20.0187 1.11387L11.9845 10.6918L3.9503 1.11387C3.83897 0.980273 3.67198 0.902344 3.49385 0.902344H0.532524C0.28018 0.902344 0.142875 1.19551 0.306157 1.38848L10.0474 13L0.306157 24.6115C0.26958 24.6545 0.246115 24.7071 0.238546 24.7631C0.230977 24.819 0.239622 24.876 0.263456 24.9272C0.28729 24.9784 0.325312 25.0216 0.373006 25.0519C0.4207 25.0821 0.476063 25.098 0.532524 25.0977H3.49385C3.66827 25.0977 3.83526 25.0197 3.9503 24.8861L11.9845 15.3082L20.0187 24.8861C20.13 25.0197 20.297 25.0977 20.4751 25.0977H23.4364C23.6888 25.0977 23.8261 24.8045 23.6628 24.6115L13.9216 13Z" fill="white"/>
</svg>
