<svg width="40" height="40" viewBox="0 0 40 40" fill="none" xmlns="http://www.w3.org/2000/svg">
<path fill-rule="evenodd" clip-rule="evenodd" d="M11.6385 1.82641L16.8702 10.888L4.39003 32.5043C1.64317 29.0797 0 24.7317 0 20C0 11.9393 4.76855 4.99245 11.6385 1.82641ZM15.6999 23.7065L19.9855 16.2837L24.271 23.7065H15.6999ZM12.5847 29.1022L8.42293 36.3106C11.6902 38.6339 15.6856 40 20 40C27.7676 40 34.501 35.5718 37.8134 29.1022H27.4001L27.3897 29.1082L27.3862 29.1022H12.5847ZM30.5015 23.7065H39.6572C39.8823 22.5054 40 21.2664 40 20C40 8.95431 31.0457 0 20 0C18.9624 0 17.9432 0.0790216 16.9481 0.231375L30.5015 23.7065Z" fill="white"/>
</svg>
